<?xml version="1.0" encoding="utf-8"?>
<!-- Generator: Adobe Illustrator 17.0.0, SVG Export Plug-In . SVG Version: 6.00 Build 0)  -->
<!DOCTYPE svg PUBLIC "-//W3C//DTD SVG 1.1//EN" "http://www.w3.org/Graphics/SVG/1.1/DTD/svg11.dtd">
<svg version="1.1" id="Layer_1" xmlns="http://www.w3.org/2000/svg" xmlns:xlink="http://www.w3.org/1999/xlink" x="0px" y="0px"
	 width="290px" height="290px" viewBox="0 0 290 290" enable-background="new 0 0 290 290" xml:space="preserve">
<g>
	<rect fill="none" width="290" height="290"/>
	<g>
		<g>
			<path fill="#FFA93A" d="M210.823,228.757c0,0,6.998-5.634,25.268-5.634c0-23.905,0-70.938,0-70.938s-25.458-3.691-34.205,22.06
				C193.94,197.639,210.823,228.757,210.823,228.757z"/>
			<path fill="#F79831" d="M261.358,228.757c0,0-6.998-5.634-25.268-5.634c0-23.905,0-70.938,0-70.938s25.458-3.691,34.203,22.06
				C278.239,197.639,261.358,228.757,261.358,228.757z"/>
			<g>
				<g>
					<path fill="#F9D19B" d="M279.179,252.832c-5.834-11.044-43.348-17.976-43.348-17.976s-37.514,6.932-43.347,17.976
						c-4.316,15.329-7.922,34.804-7.922,34.804h51.269h51.266C287.097,287.636,284.66,266.753,279.179,252.832z"/>
					<path fill="#F1C08B" d="M235.831,234.856c0,0,37.514,6.932,43.348,17.976c5.482,13.921,7.919,34.804,7.919,34.804h-51.266
						V234.856z"/>
					<rect x="225.617" y="212.401" fill="#F9D19B" width="20.425" height="34.182"/>
					<rect x="235.831" y="212.401" fill="#F1C08B" width="10.211" height="34.182"/>
					<path opacity="0.1" fill="#DDAC8C" d="M225.617,228.241c1.837,5.273,9.251,8.295,14.695,8.295c1.97,0,3.886-0.33,5.73-0.934
						v-23.201h-20.425V228.241z"/>
					<path fill="#FFE1AB" d="M262.088,190.832c0-21.351-11.755-33.492-26.257-33.492c-14.505,0-26.261,12.141-26.261,33.492
						c0,21.35,11.756,38.66,26.261,38.66C250.332,229.492,262.088,212.182,262.088,190.832z"/>
					<path fill="#F8CB96" d="M258.093,205.635c-4.76-0.53-7.975-5.981-7.168-12.171c0.796-6.193,5.304-10.791,10.066-10.265
						c4.757,0.527,7.968,5.976,7.163,12.17C267.355,201.563,262.852,206.157,258.093,205.635z"/>
					<path fill="#FFE1AB" d="M203.689,195.37c-0.802-6.194,2.407-11.643,7.161-12.17c4.767-0.526,9.273,4.072,10.072,10.265
						c0.804,6.189-2.411,11.641-7.169,12.171C208.993,206.157,204.489,201.563,203.689,195.37z"/>
					<path fill="#F8CB96" d="M262.088,190.832c0-21.351-11.755-33.492-26.257-33.492v72.151
						C250.332,229.492,262.088,212.182,262.088,190.832z"/>
				</g>
				<polygon fill="#FFFFFF" points="203.955,287.636 235.831,287.636 267.574,287.636 267.574,253.164 203.955,253.164 				"/>
				<path fill="#01455C" d="M229.67,287.636l-5.933-50.027c-13.274,2.084-28.315,9.652-31.253,15.223
					c-4.316,15.329-7.922,34.804-7.922,34.804H229.67z"/>
				<path fill="#07253F" d="M244.52,287.636h42.577c0,0-2.437-20.883-7.919-34.804c-4.789-8.528-23.708-13.146-30.301-15.088
					L244.52,287.636z"/>
			</g>
			<path fill="#07253F" d="M212.572,240.452l1.254,14.937h6.982l-3.708,7.756l9.597,24.491h2.974l-5.933-50.027
				C223.737,237.609,215.729,239.345,212.572,240.452z"/>
			<path fill="#01455C" d="M260.007,240.516l-1.294,14.873h-6.981l3.707,7.756l-9.597,24.491h-2.972l5.934-50.027
				C248.803,237.609,256.852,239.408,260.007,240.516z"/>
			<g>
				<g>
					<path fill="#0E303F" d="M210.707,192.332c0.494-1.146,1.584-2.091,2.776-2.291c5.777-0.922,11.603-0.883,17.374,0.108
						c1.143,0.209,2.201,1.097,2.718,2.183h1.068c-0.589-1.617-2.035-3.017-3.737-3.35c-2.889-0.522-5.833-0.802-8.737-0.822
						c-2.902-0.021-5.849,0.219-8.745,0.704c-1.416,0.242-4.478,2.463-4.478,2.459c-0.312,0.048-0.563,0.367-0.563,0.714
						c0,0.098,0,0.196,0,0.295H210.707z"/>
					<path opacity="0.1" fill="#FFFFFF" d="M232.949,200.059c-0.486,1.636-2.181,3.076-3.54,3.157
						c-4.827,0.231-9.654,0.231-14.48-0.008c-1.358-0.083-3.052-1.538-3.543-3.193c-0.547-1.979-0.866-3.936-0.959-5.91
						c-0.078-1.647,1.394-3.311,3.055-3.582c5.777-0.89,11.603-0.852,17.374,0.106c1.655,0.291,3.126,1.958,3.048,3.587
						C233.816,196.167,233.496,198.102,232.949,200.059z"/>
					<path fill="#0E303F" d="M230.907,189.502c-2.889-0.505-5.833-0.777-8.737-0.796c-2.902-0.019-5.849,0.213-8.745,0.681
						c-1.416,0.234-4.478,2.38-4.478,2.379c-0.312,0.044-0.563,0.353-0.563,0.688c0,1.293,0,2.587,0,3.881
						c0,0.334,0.277,0.452,0.565,0.557c0.371,0.131,0.862,0.868,0.955,1.339c0.142,0.72,0.312,1.442,0.515,2.167
						c0.596,2.002,2.638,3.842,4.461,3.965c2.417,0.132,4.87,0.205,7.289,0.203c2.418,0.002,4.871-0.071,7.296-0.202
						c1.815-0.124,3.858-1.944,4.458-3.939c0.566-2.015,0.902-4.029,0.995-6.035C235.021,192.228,233.195,189.933,230.907,189.502z
						 M232.949,200.059c-0.486,1.636-2.181,3.076-3.54,3.157c-4.827,0.231-9.654,0.231-14.48-0.008
						c-1.358-0.083-3.052-1.538-3.543-3.193c-0.547-1.979-0.866-3.936-0.959-5.91c-0.078-1.647,1.394-3.311,3.055-3.582
						c5.777-0.89,11.603-0.852,17.374,0.106c1.655,0.291,3.126,1.958,3.048,3.587C233.816,196.167,233.496,198.102,232.949,200.059z
						"/>
					<path fill="#2C5871" d="M212.285,201.633c-0.404-0.48-0.727-1.033-0.899-1.617c-0.547-1.979-0.866-3.936-0.959-5.91
						c-0.078-1.647,1.394-3.311,3.055-3.582c5.777-0.89,11.603-0.852,17.374,0.106c0.777,0.134,1.515,0.581,2.068,1.18
						c-0.571-0.806-1.459-1.433-2.41-1.595c-5.769-0.952-11.598-0.966-17.372-0.039c-1.661,0.284-3.131,1.954-3.053,3.595
						c0.092,1.966,0.409,3.914,0.958,5.886C211.266,200.393,211.724,201.082,212.285,201.633z"/>
				</g>
				<g>
					<path fill="#0E303F" d="M262.07,192.332c-0.493-1.146-1.583-2.091-2.775-2.291c-5.776-0.922-11.603-0.883-17.373,0.108
						c-1.145,0.209-2.202,1.097-2.72,2.183h-1.067c0.586-1.617,2.034-3.017,3.736-3.35c2.889-0.522,5.832-0.802,8.734-0.822
						c2.905-0.021,5.851,0.219,8.748,0.704c1.416,0.242,4.478,2.463,4.477,2.459c0.311,0.048,0.564,0.367,0.562,0.714
						c0,0.098,0,0.196,0,0.295H262.07z"/>
					<path opacity="0.1" fill="#FFFFFF" d="M239.829,200.059c0.487,1.636,2.183,3.076,3.54,3.157
						c4.826,0.231,9.655,0.231,14.479-0.008c1.359-0.083,3.053-1.538,3.541-3.193c0.547-1.979,0.867-3.936,0.96-5.91
						c0.078-1.647-1.394-3.311-3.053-3.582c-5.776-0.89-11.603-0.852-17.373,0.106c-1.659,0.291-3.128,1.958-3.051,3.587
						C238.963,196.167,239.281,198.102,239.829,200.059z"/>
					<path fill="#0E303F" d="M241.871,189.502c2.889-0.505,5.832-0.777,8.734-0.796c2.905-0.019,5.851,0.213,8.748,0.681
						c1.416,0.234,4.478,2.38,4.477,2.379c0.311,0.044,0.564,0.353,0.562,0.688c0,1.293,0,2.587,0,3.881
						c0,0.334-0.277,0.452-0.563,0.557c-0.373,0.131-0.862,0.868-0.954,1.339c-0.143,0.72-0.316,1.442-0.517,2.167
						c-0.598,2.002-2.638,3.842-4.463,3.965c-2.417,0.132-4.868,0.205-7.287,0.203c-2.418,0.002-4.871-0.071-7.296-0.202
						c-1.815-0.124-3.857-1.944-4.458-3.939c-0.567-2.015-0.902-4.029-0.995-6.035C237.754,192.228,239.583,189.933,241.871,189.502
						z M239.829,200.059c0.487,1.636,2.183,3.076,3.54,3.157c4.826,0.231,9.655,0.231,14.479-0.008
						c1.359-0.083,3.053-1.538,3.541-3.193c0.547-1.979,0.867-3.936,0.96-5.91c0.078-1.647-1.394-3.311-3.053-3.582
						c-5.776-0.89-11.603-0.852-17.373,0.106c-1.659,0.291-3.128,1.958-3.051,3.587
						C238.963,196.167,239.281,198.102,239.829,200.059z"/>
					<path fill="#2C5871" d="M260.492,201.633c0.403-0.48,0.724-1.033,0.896-1.617c0.547-1.979,0.867-3.936,0.96-5.91
						c0.078-1.647-1.394-3.311-3.053-3.582c-5.776-0.89-11.603-0.852-17.373,0.106c-0.782,0.134-1.518,0.581-2.072,1.18
						c0.571-0.806,1.46-1.433,2.41-1.595c5.773-0.952,11.6-0.966,17.374-0.039c1.659,0.284,3.129,1.954,3.052,3.595
						c-0.093,1.966-0.411,3.914-0.958,5.886C261.512,200.393,261.053,201.082,260.492,201.633z"/>
				</g>
				<g>
					<path fill="#0E303F" d="M236.785,191.453c-1.036,0.052-2.07-0.113-3.106-0.516c0.959,1.386,1.346,3.829,1.046,5.217
						c0.265-1.305,1.204-1.632,2.06-1.444V191.453z"/>
					<path fill="#0E303F" d="M235.964,191.453c1.034,0.052,2.069-0.113,3.105-0.516c-0.958,1.386-1.344,3.829-1.047,5.217
						c-0.265-1.305-1.202-1.632-2.057-1.444V191.453z"/>
				</g>
			</g>
			<g>
				<path fill="#FFA93A" d="M218.796,172.048c0,0,12.566,26.542,43.569,18.844c4.454-2.228,9.119-27.557-16.009-32.42
					S215.353,163.333,218.796,172.048z"/>
				<path fill="#FFA93A" d="M208.463,196.363c0,0,4.255-18.845,15.402-26.139c-1.012-6.079,0-13.053,0-13.053
					S202.182,163.536,208.463,196.363z"/>
			</g>
			<path fill="#F79831" d="M246.356,158.472c-3.867-0.748-7.275-1.151-10.265-1.264v31.67c6.617,3.168,15.286,4.743,26.274,2.014
				C266.819,188.664,271.484,163.335,246.356,158.472z"/>
		</g>
		<g>
			<g>
				<g>
					<path fill="#F1C9A5" d="M204.103,251.024c-6.139-11.619-45.6-18.909-45.6-18.909s-39.463,7.29-45.601,18.909
						c-4.536,16.125-8.33,36.612-8.33,36.612h53.931h53.931C212.434,287.636,209.871,265.669,204.103,251.024z"/>
					<path fill="#E4B692" d="M158.503,232.115c0,0,39.461,7.29,45.6,18.909c5.768,14.645,8.331,36.612,8.331,36.612h-53.931V232.115
						z"/>
					<rect x="147.759" y="210.765" fill="#FFDCB7" width="21.486" height="33.685"/>
					<rect x="158.503" y="210.765" fill="#F6B978" width="10.743" height="33.685"/>
					<path opacity="0.1" fill="#DDAC8C" d="M147.759,225.732c1.932,5.547,10.748,8.148,15.458,8.148
						c2.072,0,4.087-0.347,6.028-0.983v-22.133h-21.486V225.732z"/>
					<path fill="#F8E4CC" d="M186.125,188.075c0-22.459-12.368-35.231-27.623-35.231c-15.256,0-27.624,12.771-27.624,35.231
						c0,30.209,12.367,40.668,27.624,40.668C173.757,228.743,186.125,217.026,186.125,188.075z"/>
					<g>
						<path fill="#F6D1A4" d="M181.971,203.65c-4.556-0.524-7.633-5.92-6.861-12.044c0.762-6.131,5.078-10.681,9.637-10.16
							c4.553,0.522,7.625,5.914,6.856,12.044C190.838,199.62,186.528,204.167,181.971,203.65z"/>
						<path fill="#F8E4CC" d="M125.832,193.49c-0.769-6.13,2.302-11.523,6.854-12.044c4.562-0.522,8.877,4.029,9.641,10.16
							c0.768,6.125-2.31,11.52-6.864,12.044C130.907,204.167,126.596,199.62,125.832,193.49z"/>
					</g>
					<path fill="#F6D1A4" d="M186.125,188.075c0-22.459-12.368-35.231-27.623-35.231v75.899
						C173.757,228.743,186.125,217.026,186.125,188.075z"/>
				</g>
				<path fill="#07253F" d="M175.044,236.742c0,0,25.316,3.723,29.051,7.638c3.255,3.413,10.023,36.086,11.59,43.256
					c-44.444,0-57.182,0-57.182,0v-46.395L175.044,236.742z"/>
				<path fill="#01455C" d="M141.961,236.742c0,0-25.315,3.723-29.053,7.638c-3.255,3.413-10.023,36.086-11.589,43.256
					c44.441,0,57.183,0,57.183,0v-46.395L141.961,236.742z"/>
				<polygon fill="#F1F2F2" points="142.752,235.692 158.503,287.636 173.819,235.692 158.507,239.585 				"/>
			</g>
			<path fill="#A96A23" d="M173.164,155.034c-20.509-9.281-36.294,3.845-39.873,9.527c-3.808,6.046-5.975,20.963,1.867,31.491
				c0,0,23.879-9.694,27.718-19.832c-0.224,6.496-3.788,12.493-3.788,12.493s10.99-3.596,16.713-13.501
				c3.412,4.001,6.76,10.483,7.643,20.832C190.275,186.036,194.447,159.075,173.164,155.034z"/>
			<polygon fill="#C02F2E" points="163.274,244.418 158.506,239.581 153.739,244.418 156.861,247.585 153.735,281.957 
				158.506,287.636 163.274,281.957 160.149,247.587 			"/>
			<polygon fill="#AD2E2A" points="158.506,239.581 158.503,239.586 158.503,287.632 158.506,287.636 163.274,281.957 
				160.149,247.587 163.274,244.418 			"/>
			<polygon fill="#01455C" points="158.503,287.636 181.822,261.663 173.819,258.632 187.742,239.723 173.762,235.692 			"/>
			<polygon fill="#07253F" points="158.503,287.636 135.182,261.663 143.184,258.632 129.264,239.723 142.791,235.692 			"/>
			<polygon fill="#FFFFFF" points="158.507,239.585 147.759,232.115 139.608,236.64 152.227,249.253 			"/>
			<polygon fill="#F1F2F2" points="158.507,239.585 169.245,232.115 176.808,236.464 164.924,249.253 			"/>
			<path fill="#965801" d="M173.164,155.034c-5.234-2.369-10.162-3.276-14.658-3.221v30.374c2.025-1.922,3.601-3.936,4.37-5.967
				c-0.224,6.496-3.788,12.493-3.788,12.493s10.99-3.596,16.713-13.501c3.412,4.001,6.76,10.483,7.643,20.832
				C190.275,186.036,194.858,160.016,173.164,155.034z"/>
		</g>
	</g>
	<g>
		<rect x="52.465" y="174.094" fill="#E4E0CD" width="61.699" height="7.31"/>
		<rect x="57.143" y="168.539" fill="#FFFFFF" width="52.927" height="5.555"/>
		<path fill="#70381E" d="M86.713,106.293c0,1.717-1.391,3.107-3.106,3.107l0,0c-1.716,0-3.107-1.39-3.107-3.107V54.405
			c0-1.716,1.391-3.107,3.107-3.107l0,0c1.715,0,3.106,1.391,3.106,3.107V106.293z"/>
		<rect x="79.075" y="103.451" fill="#FFFFFF" width="9.064" height="65.088"/>
		<path fill="#70381E" d="M85.459,54.228c0,1.023-0.829,1.852-1.852,1.852l0,0c-1.024,0-1.853-0.829-1.853-1.852V32.492
			c0-1.023,0.83-1.852,1.853-1.852l0,0c1.023,0,1.852,0.829,1.852,1.852V54.228z"/>
		<path fill="#EFC20E" d="M83.607,44.968c0,0,13.899-4.433,21.298-4.776c10.527-0.487,27.779,19.494,38.5,7.798
			c-6.628,1.462-9.941,0.591-14.815-2.141c-4.875-2.733-15.671-11.266-26.511-11.309c-9.162-0.036-18.471,3.508-18.471,3.508"/>
		<path fill="#EFC20E" d="M83.607,44.968c0,0-13.899-4.433-21.299-4.776c-10.527-0.487-27.779,19.494-38.499,7.798
			c6.627,1.462,9.942,0.591,14.815-2.141c4.874-2.733,15.67-11.266,26.511-11.309c9.162-0.036,18.471,3.508,18.471,3.508"/>
		<g>
			<path fill="#F1C30F" d="M135.802,141.757c15.503,0,28.071-6.546,28.071-14.62H107.73
				C107.73,135.21,120.299,141.757,135.802,141.757z"/>
			<g>
				
					<rect x="110.689" y="91.023" transform="matrix(0.3336 0.9427 -0.9427 0.3336 185.2329 -78.8298)" fill="#231F20" width="75.375" height="1.17"/>
			</g>
			<g>
				<rect x="135.217" y="56.08" fill="#231F20" width="1.17" height="71.057"/>
			</g>
			<g>
				
					<rect x="123.082" y="54.064" transform="matrix(0.9464 0.3229 -0.3229 0.9464 36.2081 -35.0272)" fill="#231F20" width="1.17" height="75.087"/>
			</g>
			<g>
				<path fill="#231F20" d="M135.802,56.372c-1.935,0-3.509-1.574-3.509-3.509c0-1.935,1.574-3.509,3.509-3.509
					c1.935,0,3.509,1.574,3.509,3.509C139.311,54.798,137.738,56.372,135.802,56.372z M135.802,50.524
					c-1.29,0-2.339,1.049-2.339,2.339c0,1.291,1.049,2.34,2.339,2.34c1.289,0,2.34-1.049,2.34-2.34
					C138.142,51.573,137.092,50.524,135.802,50.524z"/>
			</g>
			<path fill="#E2AF0C" d="M135.802,141.757c15.503,0,28.071-6.546,28.071-14.62h-28.071V141.757z"/>
		</g>
		<g>
			<path fill="#F1C30F" d="M29.072,141.757c15.502,0,28.071-6.546,28.071-14.62H1C1,135.21,13.569,141.757,29.072,141.757z"/>
			<g>
				
					<rect x="3.958" y="91.023" transform="matrix(0.3336 0.9427 -0.9427 0.3336 114.1104 21.7856)" fill="#231F20" width="75.375" height="1.169"/>
			</g>
			<g>
				<rect x="28.487" y="56.08" fill="#231F20" width="1.17" height="71.057"/>
			</g>
			<g>
				
					<rect x="16.351" y="54.064" transform="matrix(0.9464 0.3229 -0.3229 0.9464 30.4903 -0.5611)" fill="#231F20" width="1.17" height="75.087"/>
			</g>
			<g>
				<path fill="#231F20" d="M29.072,56.372c-1.935,0-3.509-1.574-3.509-3.509c0-1.935,1.574-3.509,3.509-3.509
					c1.934,0,3.509,1.574,3.509,3.509C32.581,54.798,31.006,56.372,29.072,56.372z M29.072,50.524c-1.29,0-2.339,1.049-2.339,2.339
					c0,1.291,1.049,2.34,2.339,2.34c1.289,0,2.339-1.049,2.339-2.34C31.411,51.573,30.361,50.524,29.072,50.524z"/>
			</g>
			<path fill="#E2AF0C" d="M29.072,141.757c15.502,0,28.071-6.546,28.071-14.62H29.072V141.757z"/>
		</g>
		<path opacity="0.1" d="M128.59,45.849c-4.875-2.733-15.671-11.266-26.511-11.309c-6.698-0.026-13.459,1.858-16.62,2.874v-4.922
			c0-1.023-0.829-1.852-1.852-1.852c-0.1,0-0.197,0.014-0.293,0.03v150.735h30.849v-7.31h-4.093v-5.555H88.139v-65.088h-1.426
			V54.405c0-1.019-0.497-1.916-1.255-2.482v-7.521c4.028-1.207,13.697-3.942,19.446-4.208c10.527-0.487,27.779,19.494,38.5,7.798
			C136.777,49.452,133.463,48.582,128.59,45.849z"/>
		<g>
			<circle fill="#E4E0CD" cx="83.606" cy="41.431" r="4.836"/>
			<circle fill="#FFFFFF" cx="83.606" cy="41.431" r="1.995"/>
		</g>
	</g>
	<g>
		<g>
			<g>
				<path fill="#F0C311" d="M142.24,267.659c-0.012-0.011-0.02-0.023-0.034-0.036c-0.019-0.019-0.04-0.03-0.061-0.05l-51.522-49.378
					c-1.107-1.106-2.897-1.105-4.002,0.001c-1.107,1.104-1.109,2.896-0.003,4.003l49.38,51.52c0.02,0.021,0.03,0.043,0.049,0.063
					c0.013,0.012,0.025,0.022,0.035,0.033l0.121,0.123c0.046,0.048,0.11,0.064,0.162,0.105c1.713,1.416,4.238,1.345,5.843-0.259
					c1.604-1.605,1.675-4.13,0.258-5.843c-0.039-0.052-0.056-0.114-0.105-0.162L142.24,267.659z"/>
				<path fill="#5C3716" d="M135.998,273.72c0.02,0.021,0.03,0.043,0.049,0.063c0.013,0.012,0.025,0.022,0.035,0.033l0.121,0.123
					c0.046,0.048,0.11,0.064,0.162,0.105c1.713,1.416,4.238,1.345,5.843-0.259c1.604-1.605,1.675-4.13,0.258-5.843
					c-0.039-0.052-0.056-0.114-0.105-0.162l-0.123-0.12c-0.012-0.011-0.02-0.023-0.034-0.036c-0.019-0.019-0.04-0.03-0.061-0.05
					l-2.265-2.141l-6.024,6.024L135.998,273.72z"/>
				<path fill="#5C3716" d="M86.618,222.199l2.096,2.213l4.122-4.122l-2.213-2.095c-1.107-1.106-2.897-1.105-4.002,0.001
					C85.514,219.3,85.512,221.093,86.618,222.199z"/>
				<path opacity="0.1" d="M142.467,267.941c-0.039-0.052-0.056-0.114-0.105-0.162l-0.123-0.12c-0.012-0.011-0.02-0.023-0.034-0.036
					c-0.019-0.019-0.04-0.03-0.061-0.05l-51.522-49.378c-1.107-1.106-2.897-1.105-4.002,0.001l55.588,55.588
					C143.813,272.179,143.885,269.654,142.467,267.941z"/>
			</g>
			<g>
				
					<rect x="62.404" y="184.42" transform="matrix(0.7071 0.7071 -0.7071 0.7071 169.1654 4.7711)" fill="#F0C311" width="32.838" height="44.342"/>
				<path fill="#6C3917" d="M107.875,204.682c-0.902,0.902-2.365,0.902-3.267,0l-23.906-23.906
					c-0.904-0.904-0.904-2.366-0.002-3.269l0,0c0.901-0.901,2.364-0.9,3.266,0.003l23.906,23.906
					C108.774,202.319,108.776,203.782,107.875,204.682L107.875,204.682z"/>
				<path fill="#6C3917" d="M76.128,236.428c-0.901,0.902-2.364,0.901-3.267-0.001l-23.905-23.906
					c-0.904-0.903-0.904-2.366-0.004-3.268l0,0c0.904-0.902,2.365-0.901,3.269,0.003l23.907,23.905
					C77.031,234.064,77.031,235.526,76.128,236.428L76.128,236.428z"/>
			</g>
			<path opacity="0.1" d="M104.608,204.682c0.901,0.902,2.364,0.902,3.267,0c0.901-0.901,0.9-2.364-0.003-3.266L95.92,189.463
				l-35.012,35.01l11.953,11.953c0.902,0.902,2.366,0.903,3.267,0.001c0.902-0.902,0.902-2.364,0-3.267l-0.329-0.327l28.479-28.48
				L104.608,204.682z"/>
		</g>
		<g>
			<g>
				<rect x="13.171" y="268.848" fill="#6D391C" width="72.346" height="18.549"/>
				<rect x="13.171" y="268.848" fill="#CC9B14" width="72.346" height="4.936"/>
				<path fill="#13324B" d="M78.41,265.775c0-0.04,0.011-0.076,0.011-0.116c0-5.187-4.203-9.391-9.391-9.391H29.657
					c-5.187,0-9.392,4.204-9.392,9.391c0,0.04,0.012,0.076,0.012,0.116H78.41z"/>
				<path fill="#6D391C" d="M85.512,268.848c0-0.013,0.004-0.025,0.004-0.038c0-1.676-1.359-3.035-3.035-3.035H16.206
					c-1.677,0-3.036,1.359-3.036,3.035c0,0.013,0.005,0.025,0.005,0.038H85.512z"/>
			</g>
			<path opacity="0.1" d="M82.482,265.775H78.41c0-0.04,0.011-0.076,0.011-0.116c0-5.187-4.203-9.391-9.391-9.391H49.344v31.129
				h36.173v-13.613v-4.936h-0.004c0-0.013,0.004-0.025,0.004-0.038C85.517,267.134,84.157,265.775,82.482,265.775z"/>
		</g>
	</g>
</g>
</svg>
